<?xml version="1.0" encoding="utf-8"?>
<!-- Generator: Adobe Illustrator 12.0.1, SVG Export Plug-In  -->
<!DOCTYPE svg PUBLIC "-//W3C//DTD SVG 1.1//EN" "http://www.w3.org/Graphics/SVG/1.1/DTD/svg11.dtd" [
	<!ENTITY ns_flows "http://ns.adobe.com/Flows/1.0/">
	<!ENTITY ns_svg "http://www.w3.org/2000/svg">
	<!ENTITY ns_xlink "http://www.w3.org/1999/xlink">
]>
<svg  version="1.1" xmlns="&ns_svg;" xmlns:xlink="&ns_xlink;" xmlns:a="http://ns.adobe.com/AdobeSVGViewerExtensions/3.0/"
	 width="288" height="72" viewBox="0 0 288 72" enable-background="new 0 0 288 72" xml:space="preserve">
<defs>
</defs>
<path fill="#0069AA" d="M151.617,30.563h4.514c3.219,0,5.145,1.955,5.145,5.204c0,3.439-1.955,5.291-5.145,5.291h-4.514V30.563z
	 M154.352,38.706h1.293c2.074-0.044,2.896-0.854,2.896-2.955c0-1.911-1.029-2.837-2.896-2.837h-1.293V38.706z"/>
<path fill="#0069AA" d="M164.484,37.854c0.043,1.044,0.646,1.735,1.705,1.735c0.604,0,1.189-0.28,1.426-0.838h2.338
	c-0.457,1.763-2.088,2.529-3.793,2.529c-2.484,0-4.176-1.501-4.176-4.06c0-2.336,1.867-4.013,4.117-4.013
	c2.734,0,4.1,2.058,3.984,4.646H164.484z M167.586,36.458c-0.043-0.854-0.646-1.56-1.484-1.56c-0.883,0-1.471,0.632-1.617,1.56
	H167.586z"/>
<path fill="#0069AA" d="M171.031,33.429h2.381v0.883h0.029c0.486-0.722,1.221-1.103,2.104-1.103c2.396,0,3.41,2.058,3.41,4.203
	c0,1.985-1.059,3.867-3.219,3.867c-0.941,0-1.662-0.354-2.176-1.044h-0.029v3.381h-2.5V33.429z M173.441,37.162
	c0,1.339,0.383,2.206,1.516,2.206c1.117,0,1.5-1.161,1.5-2.206c0-0.969-0.383-2.042-1.484-2.042
	C174.295,35.12,173.441,35.59,173.441,37.162"/>
<path fill="#0069AA" d="M179.859,35.781c0.045-1,0.516-1.647,1.191-2.044c0.678-0.382,1.559-0.529,2.426-0.529
	c1.809,0,3.559,0.397,3.559,2.558v3.337c0,0.647,0,1.354,0.293,1.955h-2.514c-0.088-0.234-0.117-0.469-0.146-0.719
	c-0.648,0.676-1.602,0.941-2.514,0.941c-1.455,0-2.602-0.736-2.602-2.31c0-2.484,2.705-2.293,4.439-2.645
	c0.426-0.089,0.66-0.236,0.66-0.707c0-0.573-0.691-0.794-1.205-0.794c-0.691,0-1.131,0.309-1.25,0.956H179.859z M183.096,39.734
	c1.189,0,1.586-0.675,1.527-2.249c-0.352,0.222-1,0.265-1.543,0.412c-0.559,0.133-1.029,0.366-1.029,0.971
	C182.051,39.485,182.537,39.734,183.096,39.734"/>
<path fill="#0069AA" d="M188.455,33.429h2.426v1.338h0.029c0.367-0.971,1.219-1.485,2.293-1.485c0.189,0,0.396,0.015,0.588,0.06
	v2.278c-0.324-0.089-0.617-0.146-0.957-0.146c-1.234,0-1.881,0.854-1.881,1.808v3.777h-2.498V33.429z"/>
<path fill="#0069AA" d="M199.297,35.046h-1.545v3.469c0,0.603,0.354,0.735,0.898,0.735c0.205,0,0.426-0.029,0.646-0.029v1.837
	c-0.455,0.016-0.912,0.074-1.369,0.074c-2.131,0-2.676-0.618-2.676-2.689v-3.396h-1.262v-1.618h1.262v-2.307h2.5v2.307h1.545V35.046
	z"/>
<path fill="#0069AA" d="M200.258,33.429h2.424v1.044h0.029c0.457-0.765,1.266-1.265,2.191-1.265c0.955,0,1.809,0.309,2.219,1.236
	c0.604-0.81,1.354-1.236,2.381-1.236c2.428,0,2.691,1.838,2.691,3.294v4.556h-2.498v-4.482c0-0.823-0.396-1.31-1.045-1.31
	c-1.072,0-1.176,0.824-1.176,2.059v3.733h-2.5v-4.336c0-0.896-0.264-1.456-0.939-1.456c-0.896,0-1.279,0.516-1.279,2.073v3.719
	h-2.498V33.429z"/>
<path fill="#0069AA" d="M215.68,37.854c0.043,1.044,0.646,1.735,1.705,1.735c0.604,0,1.191-0.28,1.426-0.838h2.338
	c-0.455,1.763-2.088,2.529-3.793,2.529c-2.484,0-4.174-1.501-4.174-4.06c0-2.336,1.865-4.013,4.115-4.013
	c2.734,0,4.102,2.058,3.982,4.646H215.68z M218.781,36.458c-0.043-0.854-0.646-1.56-1.484-1.56c-0.883,0-1.469,0.632-1.617,1.56
	H218.781z"/>
<path fill="#0069AA" d="M222.227,33.429h2.426v1.044h0.029c0.455-0.78,1.484-1.265,2.396-1.265c2.543,0,2.748,1.853,2.748,2.955
	v4.895h-2.498v-3.689c0-1.042,0.117-2.103-1.25-2.103c-0.941,0-1.352,0.795-1.352,1.632v4.16h-2.5V33.429z"/>
<path fill="#0069AA" d="M235.701,35.046h-1.545v3.469c0,0.603,0.354,0.735,0.898,0.735c0.207,0,0.426-0.029,0.646-0.029v1.837
	c-0.457,0.016-0.912,0.074-1.367,0.074c-2.131,0-2.676-0.618-2.676-2.689v-3.396h-1.264v-1.618h1.264v-2.307h2.498v2.307h1.545
	V35.046z"/>
<path fill="#0069AA" d="M244.506,33.209c2.365,0,4.027,1.748,4.027,4.042s-1.662,4.029-4.027,4.029
	c-2.367,0-4.014-1.735-4.014-4.029S242.139,33.209,244.506,33.209 M244.506,39.368c1.16,0,1.527-1.146,1.527-2.117
	s-0.367-2.132-1.527-2.132c-1.162,0-1.516,1.161-1.516,2.132S243.344,39.368,244.506,39.368"/>
<path fill="#0069AA" d="M249.936,35.046h-1.205v-1.618h1.205c0-2.189,0.766-2.865,2.896-2.865c0.396,0,0.809,0.029,1.205,0.044
	v1.764c-0.234-0.03-0.455-0.044-0.676-0.044c-0.572,0-0.926,0.074-0.926,0.765v0.337h1.5v1.618h-1.5v6.012h-2.5V35.046z"/>
<path fill="#0069AA" d="M158.586,50.448c-0.148-1.058-0.971-1.617-2.117-1.617c-1.766,0-2.441,1.559-2.441,3.117
	s0.676,3.115,2.441,3.115c1.279,0,2.014-0.734,2.117-1.939h2.734c-0.148,2.705-2.131,4.293-4.793,4.293
	c-3.176,0-5.233-2.427-5.233-5.469s2.058-5.469,5.233-5.469c2.264,0,4.719,1.441,4.793,3.969H158.586z"/>
<path fill="#0069AA" d="M166,49.347c2.367,0,4.027,1.748,4.027,4.041c0,2.295-1.66,4.028-4.027,4.028s-4.014-1.733-4.014-4.028
	C161.986,51.095,163.633,49.347,166,49.347 M166,55.505c1.162,0,1.529-1.146,1.529-2.117c0-0.97-0.367-2.131-1.529-2.131
	s-1.514,1.161-1.514,2.131C164.486,54.358,164.838,55.505,166,55.505"/>
<path fill="#0069AA" d="M171.027,49.567h2.426v1.043h0.029c0.455-0.779,1.484-1.264,2.396-1.264c2.543,0,2.748,1.852,2.748,2.953
	v4.896h-2.498v-3.691c0-1.043,0.115-2.101-1.25-2.101c-0.941,0-1.352,0.794-1.352,1.632v4.16h-2.5V49.567z"/>
<path fill="#0069AA" d="M181.967,54.682c0,0.382,0.16,0.661,0.41,0.854c0.234,0.177,0.574,0.265,0.926,0.265
	c0.486,0,1.176-0.206,1.176-0.81c0-0.588-0.777-0.706-1.219-0.808c-1.574-0.397-3.543-0.441-3.543-2.498
	c0-1.838,1.984-2.34,3.484-2.34c1.676,0,3.424,0.487,3.512,2.471h-2.307c0-0.323-0.117-0.528-0.324-0.661
	c-0.205-0.132-0.484-0.191-0.793-0.191c-0.412,0-1.072,0.045-1.072,0.573c0,0.721,1.676,0.852,2.822,1.104
	c1.541,0.308,1.939,1.426,1.939,2.057c0,2.044-1.939,2.721-3.66,2.721c-1.809,0-3.66-0.604-3.734-2.735H181.967z"/>
<path fill="#0069AA" d="M195.494,57.196h-2.424v-1.045h-0.031c-0.471,0.781-1.441,1.266-2.322,1.266
	c-2.189,0-2.822-1.266-2.822-3.264v-4.586h2.498v4.423c0,1.015,0.441,1.368,1.234,1.368c0.545,0,1.369-0.354,1.369-1.705v-4.086
	h2.498V57.196z"/>
<path fill="#0069AA" d="M196.889,49.567h2.426v1.043h0.029c0.457-0.764,1.266-1.264,2.189-1.264c0.957,0,1.811,0.309,2.221,1.234
	c0.604-0.809,1.354-1.234,2.383-1.234c2.426,0,2.689,1.836,2.689,3.293v4.557h-2.498v-4.484c0-0.822-0.396-1.308-1.045-1.308
	c-1.072,0-1.176,0.823-1.176,2.057v3.735h-2.498v-4.337c0-0.896-0.266-1.455-0.943-1.455c-0.895,0-1.277,0.515-1.277,2.071v3.721
	h-2.5V49.567z"/>
<path fill="#0069AA" d="M212.313,53.991c0.043,1.044,0.646,1.734,1.705,1.734c0.604,0,1.191-0.279,1.426-0.838h2.338
	c-0.455,1.765-2.088,2.528-3.793,2.528c-2.482,0-4.174-1.499-4.174-4.058c0-2.336,1.867-4.013,4.115-4.013
	c2.734,0,4.102,2.059,3.982,4.646H212.313z M215.414,52.595c-0.043-0.854-0.646-1.559-1.484-1.559c-0.883,0-1.469,0.633-1.617,1.559
	H215.414z"/>
<path fill="#0069AA" d="M218.904,49.567h2.426v1.336h0.029c0.367-0.97,1.221-1.483,2.293-1.483c0.191,0,0.396,0.015,0.588,0.058
	v2.279c-0.324-0.088-0.617-0.147-0.955-0.147c-1.234,0-1.883,0.853-1.883,1.809v3.778h-2.498V49.567z"/>
<path fill="#0069AA" d="M232.074,46.7h2.777l3.926,10.496h-2.854l-0.645-1.881h-3.662l-0.662,1.881h-2.807L232.074,46.7z
	 M232.25,53.286h2.383l-1.162-3.676h-0.029L232.25,53.286z"/>
<path fill="#0069AA" d="M239.566,51.183h-1.205v-1.615h1.205c0-2.191,0.766-2.867,2.896-2.867c0.396,0,0.809,0.029,1.205,0.045
	v1.764c-0.234-0.029-0.455-0.044-0.676-0.044c-0.572,0-0.926,0.072-0.926,0.763v0.34h1.5v1.615h-1.5v6.014h-2.5V51.183z"/>
<path fill="#0069AA" d="M245.012,51.183h-1.203v-1.615h1.203c0-2.191,0.766-2.867,2.898-2.867c0.396,0,0.809,0.029,1.203,0.045
	v1.764c-0.234-0.029-0.455-0.044-0.676-0.044c-0.574,0-0.926,0.072-0.926,0.763v0.34h1.498v1.615h-1.498v6.014h-2.5V51.183z"/>
<path fill="#0069AA" d="M249.492,51.919c0.043-1,0.514-1.647,1.189-2.044c0.676-0.382,1.559-0.529,2.426-0.529
	c1.809,0,3.559,0.397,3.559,2.558v3.337c0,0.646,0,1.353,0.293,1.956h-2.514c-0.086-0.236-0.117-0.471-0.146-0.721
	c-0.648,0.676-1.604,0.941-2.514,0.941c-1.455,0-2.604-0.736-2.604-2.309c0-2.483,2.705-2.294,4.439-2.646
	c0.426-0.088,0.662-0.235,0.662-0.706c0-0.574-0.689-0.794-1.205-0.794c-0.691,0-1.131,0.31-1.25,0.956H249.492z M252.725,55.872
	c1.191,0,1.588-0.674,1.529-2.248c-0.352,0.221-1,0.264-1.543,0.41c-0.559,0.133-1.029,0.368-1.029,0.971
	C251.682,55.622,252.168,55.872,252.725,55.872"/>
<path fill="#0069AA" d="M260.576,48.61h-2.498V46.7h2.498V48.61z M258.078,49.567h2.498v7.629h-2.498V49.567z"/>
<path fill="#0069AA" d="M262.037,49.567h2.426v1.336h0.029c0.367-0.97,1.221-1.483,2.293-1.483c0.191,0,0.396,0.015,0.59,0.058
	v2.279c-0.324-0.088-0.619-0.147-0.957-0.147c-1.234,0-1.883,0.853-1.883,1.809v3.778h-2.498V49.567z"/>
<path fill="#0069AA" d="M270.018,54.682c0,0.382,0.16,0.661,0.412,0.854c0.234,0.177,0.572,0.265,0.924,0.265
	c0.488,0,1.178-0.206,1.178-0.81c0-0.588-0.779-0.706-1.221-0.808c-1.572-0.397-3.543-0.441-3.543-2.498
	c0-1.838,1.984-2.34,3.482-2.34c1.678,0,3.426,0.487,3.516,2.471h-2.309c0-0.323-0.117-0.528-0.324-0.661
	c-0.205-0.132-0.484-0.191-0.793-0.191c-0.412,0-1.072,0.045-1.072,0.573c0,0.721,1.674,0.852,2.822,1.104
	c1.543,0.308,1.941,1.426,1.941,2.057c0,2.044-1.941,2.721-3.662,2.721c-1.809,0-3.66-0.604-3.734-2.735H270.018z"/>
<polygon fill="#FBBA87" points="132.736,14.583 106.121,14.583 98.137,22.567 98.137,49.183 106.121,57.167 132.736,57.167 
	140.721,49.183 140.721,41.197 138.058,38.531 124.753,38.531 124.753,41.197 114.104,41.197 114.104,30.551 124.753,30.551 
	124.753,33.181 138.058,33.181 140.721,30.551 140.721,22.567 "/>
<polygon fill="#F68933" points="52.892,14.583 42.246,14.583 39.584,17.245 39.584,27.89 26.278,14.583 15.632,14.583 
	12.969,17.245 12.969,54.505 15.632,57.167 26.278,57.167 28.939,54.505 28.939,43.859 42.246,57.167 52.892,57.167 55.553,54.505 
	55.553,17.245 "/>
<polygon fill="#F89F59" points="71.522,57.165 82.168,57.165 84.83,54.503 84.83,46.52 98.137,33.214 98.137,17.243 95.477,14.583 
	84.83,14.583 82.168,17.243 82.168,22.567 76.846,27.89 71.522,22.567 71.522,17.243 68.861,14.583 58.214,14.583 55.553,17.243 
	55.553,33.214 68.861,46.52 68.861,54.503 "/>
<path fill="#FBBB87" d="M137.144,16.848h-0.454v-1.885h-0.741v-0.38h1.935v0.38h-0.74V16.848z M140.713,16.848h-0.41v-1.823
	l-0.628,1.823h-0.361l-0.634-1.823v1.823h-0.417v-2.265h0.653l0.572,1.623l0.579-1.623h0.646V16.848"/>
<rect id="_x3C_Slice_x3E__2_" fill="none" width="288" height="72"/>
</svg>
